<svg width="617.3" height="98.4" viewBox="0 0 617.3 98.4" xmlns="http://www.w3.org/2000/svg">
  <g id="svgGroup" stroke-linecap="round" fill-rule="evenodd" font-size="9pt" stroke="#f05011" stroke-width="0.25mm" fill="#f05011" style="stroke:#f05011;stroke-width:0.25mm;fill:#f05011">
    <path d="M 0 70.6 L 4.6 63.3 A 16.858 16.858 0 0 0 8.67 66.416 A 19.43 19.43 0 0 0 9.4 66.8 A 13.114 13.114 0 0 0 13.275 68.06 A 11.941 11.941 0 0 0 15.1 68.2 A 10.741 10.741 0 0 0 18.607 67.652 A 8.936 8.936 0 0 0 22.7 64.75 Q 25.5 61.3 25.5 53.1 L 25.5 5.2 L 35 5.2 L 35 52.1 A 47.346 47.346 0 0 1 34.573 58.698 Q 33.481 66.431 29.6 70.6 A 17.93 17.93 0 0 1 17.808 76.285 A 24.68 24.68 0 0 1 15.4 76.4 A 23.443 23.443 0 0 1 7.322 75.017 A 22.405 22.405 0 0 1 6.75 74.8 A 22.827 22.827 0 0 1 2.828 72.818 A 18.183 18.183 0 0 1 0 70.6 Z" id="0" vector-effect="non-scaling-stroke"/>
    <path d="M 46 69.3 L 50.8 61.3 Q 54.4 64.3 58.9 66.2 A 23.348 23.348 0 0 0 64.27 67.71 A 32.118 32.118 0 0 0 69.4 68.1 A 27.981 27.981 0 0 0 73.947 67.754 Q 76.37 67.354 78.331 66.494 A 13.701 13.701 0 0 0 80.8 65.1 Q 84.848 62.209 84.995 57.366 A 12.116 12.116 0 0 0 85 57 A 11.94 11.94 0 0 0 84.663 54.107 A 9.816 9.816 0 0 0 83.8 51.85 A 8.097 8.097 0 0 0 82.6 50.194 Q 81.33 48.813 79.184 47.471 A 25.81 25.81 0 0 0 79.15 47.45 Q 76.034 45.508 70.265 43.28 A 118.584 118.584 0 0 0 69 42.8 Q 61.8 40 57.5 37.15 A 21.931 21.931 0 0 1 54.411 34.702 Q 52.694 33.053 51.638 31.188 A 13.303 13.303 0 0 1 51.35 30.65 Q 49.5 27 49.5 22 Q 49.5 17 52.25 12.95 Q 55 8.9 60.35 6.45 A 25.558 25.558 0 0 1 66.25 4.615 Q 69.493 4 73.3 4 Q 79.5 4 84.45 5.25 Q 89.4 6.5 94.1 8.8 L 90.6 16.9 A 31.496 31.496 0 0 0 86.474 14.881 A 41.686 41.686 0 0 0 82.65 13.55 Q 78.1 12.2 73.1 12.2 A 27.187 27.187 0 0 0 69.07 12.48 Q 66.938 12.8 65.2 13.487 A 12.616 12.616 0 0 0 62.7 14.8 A 9.902 9.902 0 0 0 60.537 16.765 A 7.359 7.359 0 0 0 58.9 21.5 A 10.464 10.464 0 0 0 59.192 24.022 A 8.562 8.562 0 0 0 60 26.1 Q 61.056 28.019 64.091 29.847 A 23.503 23.503 0 0 0 64.35 30 A 33.003 33.003 0 0 0 66.566 31.172 Q 68.835 32.275 72.046 33.523 A 130.016 130.016 0 0 0 74.1 34.3 A 81.228 81.228 0 0 1 79.078 36.329 Q 83.464 38.3 86.45 40.4 A 26.044 26.044 0 0 1 89.49 42.877 Q 91.713 45.006 92.9 47.35 A 17.579 17.579 0 0 1 94.641 53.213 A 22.155 22.155 0 0 1 94.8 55.9 A 21.71 21.71 0 0 1 94.133 61.401 A 17.105 17.105 0 0 1 91.55 67 Q 88.3 71.6 82.55 74 A 30.521 30.521 0 0 1 75.14 76.004 A 40.027 40.027 0 0 1 69.4 76.4 Q 62.1 76.4 56.1 74.45 A 38.206 38.206 0 0 1 50.733 72.268 A 28.433 28.433 0 0 1 46 69.3 Z" id="1" vector-effect="non-scaling-stroke"/>
    <path d="M 130.208 75.642 A 36.51 36.51 0 0 0 137.8 76.4 A 38.35 38.35 0 0 0 142.962 76.063 A 30.074 30.074 0 0 0 151.7 73.55 Q 157.8 70.7 162.1 65.75 Q 166.4 60.8 168.65 54.2 Q 170.9 47.6 170.9 40.1 A 48.215 48.215 0 0 0 170.821 37.323 A 41.439 41.439 0 0 0 168.65 26.1 Q 166.4 19.6 162.1 14.6 Q 157.8 9.6 151.65 6.8 A 29.925 29.925 0 0 0 145.758 4.838 A 36.42 36.42 0 0 0 137.8 4 A 39.35 39.35 0 0 0 131.572 4.476 A 29.661 29.661 0 0 0 120.1 8.75 Q 112.7 13.5 108.75 21.65 A 37.989 37.989 0 0 0 105.915 29.763 A 46.182 46.182 0 0 0 104.8 40.1 A 48.913 48.913 0 0 0 104.835 41.961 A 42.769 42.769 0 0 0 107.05 54.2 A 39.376 39.376 0 0 0 107.489 55.423 A 34.353 34.353 0 0 0 113.55 65.75 Q 117.8 70.7 123.9 73.55 A 29.142 29.142 0 0 0 130.208 75.642 Z M 137.8 68.2 A 26.517 26.517 0 0 0 143.748 67.566 A 19.316 19.316 0 0 0 150.7 64.5 A 22.47 22.47 0 0 0 158.025 55.629 A 27.252 27.252 0 0 0 158.55 54.45 A 34.108 34.108 0 0 0 160.872 45.521 A 43.503 43.503 0 0 0 161.2 40.1 Q 161.2 34.7 159.6 29.7 A 29.735 29.735 0 0 0 155.46 21.374 A 28.121 28.121 0 0 0 155 20.75 Q 152 16.8 147.65 14.5 A 19.921 19.921 0 0 0 140.233 12.318 A 24.578 24.578 0 0 0 137.8 12.2 A 24.086 24.086 0 0 0 131.308 13.04 A 19.545 19.545 0 0 0 125.25 15.9 A 23.148 23.148 0 0 0 117.649 25.027 A 27.785 27.785 0 0 0 117.25 25.9 A 32.793 32.793 0 0 0 114.796 35.088 A 41.257 41.257 0 0 0 114.5 40.1 Q 114.5 45.5 116.05 50.55 A 29.379 29.379 0 0 0 120.231 59.096 A 27.923 27.923 0 0 0 120.6 59.6 Q 123.6 63.6 127.95 65.9 A 19.921 19.921 0 0 0 135.367 68.082 A 24.578 24.578 0 0 0 137.8 68.2 Z" id="2" vector-effect="non-scaling-stroke"/>
    <path d="M 193.9 75.2 L 184.9 75.2 L 184.9 5.2 L 197.5 5.2 L 228.4 63.4 L 228.4 5.2 L 237.4 5.2 L 237.4 75.2 L 225 75.2 L 193.9 17.4 L 193.9 75.2 Z" id="3" vector-effect="non-scaling-stroke"/>
    <path fill="#ffa11b" stroke="#ffa11b" d="M 294.9 75.2 L 285.4 75.2 L 285.4 5.4 Q 289.5 4.9 294.45 4.65 A 200.806 200.806 0 0 1 303.38 4.404 A 221.966 221.966 0 0 1 304.7 4.4 Q 312.27 4.4 317.872 6.482 A 26.011 26.011 0 0 1 319.5 7.15 A 24.606 24.606 0 0 1 324.582 10.179 A 19.374 19.374 0 0 1 328.8 14.7 Q 332 19.5 332 25.7 A 25.258 25.258 0 0 1 331.292 31.822 A 19.268 19.268 0 0 1 328.3 38.4 A 22.312 22.312 0 0 1 320.749 45.03 A 28.065 28.065 0 0 1 318 46.35 A 34.774 34.774 0 0 1 309.911 48.574 A 47.194 47.194 0 0 1 302.7 49.1 Q 298.5 49.1 294.9 48.8 L 294.9 75.2 Z M 294.9 12.8 L 294.9 40.7 Q 296 40.838 297.431 40.952 A 96.255 96.255 0 0 0 298.8 41.05 Q 301.1 41.2 303.9 41.2 A 31.831 31.831 0 0 0 309.28 40.775 Q 312.159 40.28 314.463 39.211 A 15.221 15.221 0 0 0 317.7 37.2 A 12.896 12.896 0 0 0 322.555 27.758 A 17.32 17.32 0 0 0 322.6 26.5 A 14.452 14.452 0 0 0 321.839 21.707 A 12.136 12.136 0 0 0 317.9 16.2 A 15.462 15.462 0 0 0 312.819 13.537 Q 310.593 12.826 307.9 12.56 A 34.58 34.58 0 0 0 304.5 12.4 A 131.125 131.125 0 0 0 301.242 12.439 A 109.939 109.939 0 0 0 299.4 12.5 A 91.274 91.274 0 0 0 296.517 12.664 A 75.041 75.041 0 0 0 294.9 12.8 Z" id="5" vector-effect="non-scaling-stroke"/>
    <path fill="#ffa11b" stroke="#ffa11b" d="M 351.5 75.2 L 342.5 75.2 L 342.5 23.2 L 351.2 23.2 L 351.2 34.5 Q 352.5 31.2 354.7 28.35 Q 356.9 25.5 360.2 23.75 A 14.817 14.817 0 0 1 364.88 22.226 A 19.459 19.459 0 0 1 367.9 22 Q 369.4 22 370.9 22.15 A 18.972 18.972 0 0 1 371.955 22.284 Q 372.455 22.362 372.882 22.463 A 8.817 8.817 0 0 1 373.4 22.6 L 370.7 31.9 A 9.763 9.763 0 0 0 368.555 31.288 Q 367.459 31.1 366.2 31.1 A 12.958 12.958 0 0 0 359.57 32.946 A 15.609 15.609 0 0 0 359.15 33.2 Q 355.822 35.286 353.678 39.642 A 22.927 22.927 0 0 0 353.65 39.7 Q 351.887 43.307 351.57 48.528 A 39.09 39.09 0 0 0 351.5 50.9 L 351.5 75.2 Z" id="6" vector-effect="non-scaling-stroke"/>
    <path fill="#ffa11b" stroke="#ffa11b" d="M 421.5 52.9 L 385.1 52.9 A 24.088 24.088 0 0 0 386.239 57.925 Q 387.575 61.738 390.2 64.3 Q 394.4 68.4 401.3 68.4 Q 405.8 68.4 409.4 67.45 Q 413 66.5 416.3 65 L 418.4 72.7 A 40.77 40.77 0 0 1 414.065 74.326 A 51.863 51.863 0 0 1 410.3 75.35 A 38.914 38.914 0 0 1 405.208 76.169 A 52.025 52.025 0 0 1 400.2 76.4 A 28.318 28.318 0 0 1 392.454 75.395 A 21.108 21.108 0 0 1 382.45 69.25 A 23.521 23.521 0 0 1 377.245 59.71 Q 375.9 55.045 375.9 49.2 A 35.359 35.359 0 0 1 376.733 41.378 A 28.84 28.84 0 0 1 378.85 35.25 A 24.642 24.642 0 0 1 383.866 28.168 A 22.887 22.887 0 0 1 387.1 25.55 A 21.048 21.048 0 0 1 397.359 22.078 A 26.205 26.205 0 0 1 399.4 22 Q 406.9 22 411.85 25.25 Q 416.8 28.5 419.3 34 A 28.185 28.185 0 0 1 421.726 43.864 A 33.434 33.434 0 0 1 421.8 46.1 A 75.204 75.204 0 0 1 421.509 52.797 A 69.426 69.426 0 0 1 421.5 52.9 Z M 385 45.6 L 413.5 45.6 A 24.355 24.355 0 0 0 413.096 41.015 Q 412.6 38.431 411.496 36.407 A 12.422 12.422 0 0 0 409.7 33.9 A 12.488 12.488 0 0 0 402.739 30.124 A 18.395 18.395 0 0 0 399.2 29.8 A 13.58 13.58 0 0 0 394.088 30.735 A 12.524 12.524 0 0 0 389.6 33.85 Q 385.8 37.9 385 45.6 Z" id="7" vector-effect="non-scaling-stroke"/>
    <path fill="#ffa11b" stroke="#ffa11b" d="M 435.8 57.3 L 435.8 32.9 L 426.8 32.9 L 426.8 25.1 L 436 25.1 L 437.9 8.7 L 444.8 8.7 L 444.8 25.1 L 459.2 25.1 L 459.2 32.9 L 444.8 32.9 L 444.8 58 A 21.559 21.559 0 0 0 444.968 60.796 Q 445.441 64.402 447.25 66.1 Q 449.7 68.4 453.1 68.4 Q 455.6 68.4 457.85 67.6 Q 460.1 66.8 462 65.7 L 464.5 72.9 A 18.546 18.546 0 0 1 462.882 73.756 Q 462.08 74.135 461.134 74.508 A 43.365 43.365 0 0 1 459.1 75.25 Q 455.7 76.4 452 76.4 Q 444.5 76.4 440.15 71.45 A 16.116 16.116 0 0 1 436.922 65.548 Q 436.159 63.117 435.915 60.181 A 34.777 34.777 0 0 1 435.8 57.3 Z" id="8" vector-effect="non-scaling-stroke"/>
    <path fill="#ffa11b" stroke="#ffa11b" d="M 475.5 57.3 L 475.5 32.9 L 466.5 32.9 L 466.5 25.1 L 475.7 25.1 L 477.6 8.7 L 484.5 8.7 L 484.5 25.1 L 498.9 25.1 L 498.9 32.9 L 484.5 32.9 L 484.5 58 A 21.559 21.559 0 0 0 484.668 60.796 Q 485.141 64.402 486.95 66.1 Q 489.4 68.4 492.8 68.4 Q 495.3 68.4 497.55 67.6 Q 499.8 66.8 501.7 65.7 L 504.2 72.9 A 18.546 18.546 0 0 1 502.582 73.756 Q 501.78 74.135 500.834 74.508 A 43.365 43.365 0 0 1 498.8 75.25 Q 495.4 76.4 491.7 76.4 Q 484.2 76.4 479.85 71.45 A 16.116 16.116 0 0 1 476.622 65.548 Q 475.859 63.117 475.615 60.181 A 34.777 34.777 0 0 1 475.5 57.3 Z" id="9" vector-effect="non-scaling-stroke"/>
    <path fill="#ffa11b" stroke="#ffa11b" d="M 504.7 92.401 L 506.7 84.901 A 9.908 9.908 0 0 0 507.865 85.475 Q 508.688 85.819 509.7 86.101 A 13.514 13.514 0 0 0 511.979 86.518 A 17.358 17.358 0 0 0 513.7 86.601 Q 517.9 86.601 521.2 83.901 A 12.003 12.003 0 0 0 523.133 81.839 Q 524.881 79.528 526.541 75.676 A 58.58 58.58 0 0 0 527.5 73.301 L 529.8 67.301 L 525 67.301 L 504.7 21.601 L 512.7 18.001 L 532.1 61.301 L 547.2 18.401 L 555.5 21.601 L 536.4 73.801 A 71.728 71.728 0 0 1 534.347 78.887 Q 533.245 81.326 532.078 83.315 A 30.86 30.86 0 0 1 530.1 86.301 A 24.268 24.268 0 0 1 527.222 89.511 Q 525.308 91.279 523.205 92.318 A 14.737 14.737 0 0 1 522.6 92.601 Q 518.5 94.401 513.5 94.401 Q 510.5 94.401 508.25 93.801 Q 506 93.201 504.7 92.401 Z" id="10" vector-effect="non-scaling-stroke"/>
  </g>
</svg>
